<svg width="298" height="98" viewBox="0 0 298 98" fill="none" xmlns="http://www.w3.org/2000/svg">
<path d="M98 49C98 76.062 76.062 98 49 98C21.938 98 0 76.062 0 49C0 21.938 21.938 0 49 0C76.062 0 98 21.938 98 49Z" fill="#156BEC"/>
<path d="M132.217 65.473H146.854C153.149 65.473 156.927 61.8531 156.927 56.0297C156.927 51.9376 153.831 48.003 150.107 47.4259C153.254 46.7963 156.245 43.806 156.245 39.3991C156.245 33.8905 152.415 30.4805 146.592 30.4805H132.217V65.473ZM135.207 46.1668V33.2085H146.224C150.736 33.2085 153.097 36.1464 153.097 39.7139C153.097 43.3338 150.736 46.1668 146.224 46.1668H135.207ZM135.207 62.7449V48.8948H146.434C151.313 48.8948 153.779 52.2524 153.779 55.8199C153.779 60.0693 151.051 62.7449 146.434 62.7449H135.207Z" fill="#2A2828"/>
<path d="M162.868 52.777C162.868 60.594 168.167 66.1025 175.564 66.1025C179.761 66.1025 182.962 64.6336 185.48 62.0104L184.063 60.2267C181.86 62.5351 178.974 63.7417 175.722 63.7417C169.793 63.7417 166.121 59.1775 165.859 53.6689H187.054V52.9344C187.054 45.6421 182.804 39.504 175.092 39.504C168.062 39.504 162.868 45.4323 162.868 52.777ZM175.04 41.8648C181.388 41.8648 184.221 47.216 184.273 51.5179H165.859C166.069 47.1111 169.059 41.8648 175.04 41.8648Z" fill="#2A2828"/>
<path d="M210.21 65.473H212.938V47.6357C212.938 41.9698 208.846 39.504 203.652 39.504C199.507 39.504 196.569 40.9205 193.946 43.806L195.468 45.6421C197.776 43.019 200.242 41.9173 203.39 41.9173C207.167 41.9173 210.21 44.0158 210.21 47.7406V52.882C207.954 50.4162 205.121 49.3145 201.606 49.3145C197.199 49.3145 192.74 52.1475 192.74 57.6561C192.74 63.1122 197.251 66.1025 201.606 66.1025C205.121 66.1025 207.954 64.9484 210.21 62.4826V65.473ZM210.21 60.489C208.426 62.7974 205.593 63.9516 202.55 63.9516C198.353 63.9516 195.625 61.276 195.625 57.7085C195.625 54.1411 198.353 51.413 202.55 51.413C205.593 51.413 208.426 52.6197 210.21 54.928V60.489Z" fill="#2A2828"/>
<path d="M219.993 52.777C219.993 60.1743 224.872 66.1025 232.322 66.1025C236.676 66.1025 239.247 64.3713 241.293 61.7481L239.404 60.0693C237.516 62.5875 235.26 63.6368 232.479 63.6368C226.551 63.6368 222.931 58.8627 222.931 52.777C222.931 46.6914 226.551 41.9698 232.479 41.9698C235.26 41.9698 237.516 42.9666 239.404 45.4848L241.293 43.806C239.247 41.2353 236.676 39.504 232.322 39.504C224.872 39.504 219.993 45.3798 219.993 52.777Z" fill="#2A2828"/>
<path d="M258.088 66.1025C265.59 66.1025 270.312 60.1743 270.312 52.777C270.312 45.3798 265.59 39.504 258.088 39.504C250.691 39.504 245.917 45.3798 245.917 52.777C245.917 60.1743 250.691 66.1025 258.088 66.1025ZM258.088 63.6368C252.213 63.6368 248.855 58.443 248.855 52.777C248.855 47.1636 252.213 41.9698 258.088 41.9698C264.069 41.9698 267.374 47.1636 267.374 52.777C267.374 58.443 264.069 63.6368 258.088 63.6368Z" fill="#2A2828"/>
<path d="M294.46 65.473H297.188V47.7406C297.188 42.0222 294.355 39.504 289.214 39.504C285.541 39.504 281.921 41.7599 280.085 43.9633V40.1336H277.357V65.473H280.085V46.3242C281.712 44.0683 285.069 41.9698 288.322 41.9698C291.994 41.9698 294.46 43.4387 294.46 48.3702V65.473Z" fill="#2A2828"/>
<path d="M132.217 65.473H146.854C153.149 65.473 156.927 61.8531 156.927 56.0297C156.927 51.9376 153.831 48.003 150.107 47.4259C153.254 46.7963 156.245 43.806 156.245 39.3991C156.245 33.8905 152.415 30.4805 146.592 30.4805H132.217V65.473ZM135.207 46.1668V33.2085H146.224C150.736 33.2085 153.097 36.1464 153.097 39.7139C153.097 43.3338 150.736 46.1668 146.224 46.1668H135.207ZM135.207 62.7449V48.8948H146.434C151.313 48.8948 153.779 52.2524 153.779 55.8199C153.779 60.0693 151.051 62.7449 146.434 62.7449H135.207Z" stroke="#2A2828"/>
<path d="M162.868 52.777C162.868 60.594 168.167 66.1025 175.564 66.1025C179.761 66.1025 182.962 64.6336 185.48 62.0104L184.063 60.2267C181.86 62.5351 178.974 63.7417 175.722 63.7417C169.793 63.7417 166.121 59.1775 165.859 53.6689H187.054V52.9344C187.054 45.6421 182.804 39.504 175.092 39.504C168.062 39.504 162.868 45.4323 162.868 52.777ZM175.04 41.8648C181.388 41.8648 184.221 47.216 184.273 51.5179H165.859C166.069 47.1111 169.059 41.8648 175.04 41.8648Z" stroke="#2A2828"/>
<path d="M210.21 65.473H212.938V47.6357C212.938 41.9698 208.846 39.504 203.652 39.504C199.507 39.504 196.569 40.9205 193.946 43.806L195.468 45.6421C197.776 43.019 200.242 41.9173 203.39 41.9173C207.167 41.9173 210.21 44.0158 210.21 47.7406V52.882C207.954 50.4162 205.121 49.3145 201.606 49.3145C197.199 49.3145 192.74 52.1475 192.74 57.6561C192.74 63.1122 197.251 66.1025 201.606 66.1025C205.121 66.1025 207.954 64.9484 210.21 62.4826V65.473ZM210.21 60.489C208.426 62.7974 205.593 63.9516 202.55 63.9516C198.353 63.9516 195.625 61.276 195.625 57.7085C195.625 54.1411 198.353 51.413 202.55 51.413C205.593 51.413 208.426 52.6197 210.21 54.928V60.489Z" stroke="#2A2828"/>
<path d="M219.993 52.777C219.993 60.1743 224.872 66.1025 232.322 66.1025C236.676 66.1025 239.247 64.3713 241.293 61.7481L239.404 60.0693C237.516 62.5875 235.26 63.6368 232.479 63.6368C226.551 63.6368 222.931 58.8627 222.931 52.777C222.931 46.6914 226.551 41.9698 232.479 41.9698C235.26 41.9698 237.516 42.9666 239.404 45.4848L241.293 43.806C239.247 41.2353 236.676 39.504 232.322 39.504C224.872 39.504 219.993 45.3798 219.993 52.777Z" stroke="#2A2828"/>
<path d="M258.088 66.1025C265.59 66.1025 270.312 60.1743 270.312 52.777C270.312 45.3798 265.59 39.504 258.088 39.504C250.691 39.504 245.917 45.3798 245.917 52.777C245.917 60.1743 250.691 66.1025 258.088 66.1025ZM258.088 63.6368C252.213 63.6368 248.855 58.443 248.855 52.777C248.855 47.1636 252.213 41.9698 258.088 41.9698C264.069 41.9698 267.374 47.1636 267.374 52.777C267.374 58.443 264.069 63.6368 258.088 63.6368Z" stroke="#2A2828"/>
<path d="M294.46 65.473H297.188V47.7406C297.188 42.0222 294.355 39.504 289.214 39.504C285.541 39.504 281.921 41.7599 280.085 43.9633V40.1336H277.357V65.473H280.085V46.3242C281.712 44.0683 285.069 41.9698 288.322 41.9698C291.994 41.9698 294.46 43.4387 294.46 48.3702V65.473Z" stroke="#2A2828"/>
<mask id="mask0" mask-type="alpha" maskUnits="userSpaceOnUse" x="0" y="0" width="98" height="98">
<path d="M98 49C98 76.062 76.062 98 49 98C21.938 98 0 76.062 0 49C0 21.938 21.938 0 49 0C76.062 0 98 21.938 98 49Z" fill="#2F2D2E"/>
</mask>
<g mask="url(#mask0)">
<path d="M64.2493 101.072H33.9607C37.7863 65.821 35.7509 84.5592 38.9424 55.1605H38.2649C35.8003 55.1605 33.8013 53.1615 33.8013 50.6969C33.8013 48.2327 35.8003 46.2334 38.2649 46.2334V37.9438C38.2649 28.2585 50.0062 23.5102 56.7696 30.2792C58.732 32.24 59.9452 34.95 59.9452 37.9438V46.2334C62.4097 46.2334 64.4087 48.2324 64.4087 50.6969C64.4087 53.1612 62.4097 55.1605 59.9452 55.1605H59.2676C61.6149 76.8089 62.056 80.8439 64.2493 101.072Z" fill="#E8F8FC"/>
<path d="M59.9449 37.9438V46.2333H38.2646V37.9438C38.2646 28.2583 50.006 23.5103 56.7694 30.2792C58.7318 32.24 59.9449 34.95 59.9449 37.9438Z" fill="#EAD95B"/>
<path d="M51.6558 42.4072C49.4582 42.4072 47.6704 40.6194 47.6704 38.4219C47.6704 36.2244 49.4582 34.4365 51.6558 34.4365C53.8533 34.4365 55.6411 36.2244 55.6411 38.4219C55.6411 40.6194 53.8533 42.4072 51.6558 42.4072Z" fill="#D5C133"/>
<path d="M71.9665 31.0201C71.3884 29.7355 71.9612 28.2255 73.2458 27.6473L79.6223 24.7779C80.9066 24.2002 82.4169 24.7725 82.9949 26.0572C83.5729 27.3417 83.0001 28.8517 81.7156 29.4299L75.339 32.2994C74.0551 32.8772 72.5448 32.3051 71.9665 31.0201Z" fill="#EAD95B"/>
<path d="M79.6224 52.0669L73.2458 49.1975C71.9611 48.6194 71.3885 47.1093 71.9665 45.8248C72.5447 44.54 74.0551 43.9677 75.3391 44.5455L81.7156 47.4149C83.0003 47.9929 83.5729 49.5031 82.9949 50.7876C82.4169 52.0724 80.9066 52.645 79.6224 52.0669Z" fill="#EAD95B"/>
<path d="M83.6981 40.9728H79.7127C78.304 40.9728 77.1621 39.8308 77.1621 38.4222C77.1621 37.0136 78.304 35.8716 79.7127 35.8716H83.6981C85.1068 35.8716 86.2487 37.0136 86.2487 38.4222C86.2487 39.8308 85.1068 40.9728 83.6981 40.9728Z" fill="#EAD95B"/>
<path d="M22.8709 32.2995L16.4943 29.43C15.2097 28.852 14.637 27.3419 15.215 26.0573C15.793 24.7726 17.3029 24.2 18.5877 24.778L24.9643 27.6475C26.2488 28.2255 26.8216 29.7356 26.2436 31.0202C25.6659 32.304 24.1565 32.8778 22.8709 32.2995Z" fill="#EAD95B"/>
<path d="M17.5421 52.2918C14.8126 52.2918 13.9908 48.5411 16.494 47.4146L22.8705 44.5451C24.1549 43.9671 25.665 44.5397 26.2432 45.8244C26.8213 47.109 26.2485 48.6189 24.9639 49.1971C18.0331 52.3161 18.2765 52.2918 17.5421 52.2918Z" fill="#EAD95B"/>
<path d="M18.4974 40.9728H14.512C13.1035 40.9728 11.9614 39.8308 11.9614 38.4222C11.9614 37.0136 13.1035 35.8716 14.512 35.8716H18.4974C19.906 35.8716 21.048 37.0136 21.048 38.4222C21.048 39.8308 19.9061 40.9728 18.4974 40.9728Z" fill="#EAD95B"/>
<path d="M60.0489 49.4137C57.0082 49.4105 51.5237 49.4217 41.4534 49.4217C39.4276 49.4217 37.7771 50.751 37.2047 52.5137C36.7711 53.8488 34.9093 53.9568 34.277 52.7035C32.7605 49.6967 35.0131 46.2334 38.3623 46.2334H59.9452C62.2977 46.2334 62.09 49.4159 60.0489 49.4137Z" fill="#F1FAFC"/>
<path d="M63.1098 90.5601L37.3086 101.072H33.9609L35.6045 85.9275L61.3801 75.4062C61.5088 75.3914 61.3353 74.2208 63.1098 90.5601Z" fill="#E1655B"/>
<path d="M59.2676 55.1606C59.8444 60.4809 59.813 60.0999 59.7857 60.1025C36.4429 69.6064 37.4944 69.1918 37.4199 69.1843L38.9423 55.1606H59.2676Z" fill="#E1655B"/>
<path d="M43.725 55.1606C40.6128 83.8284 42.4657 66.774 38.7434 101.072H33.9609C37.7866 65.8211 35.7512 84.5593 38.9426 55.1606H43.725Z" fill="#F1FAFC"/>
<path d="M40.6085 83.8853C40.2538 87.155 39.1328 97.4871 38.8103 100.46L37.3086 101.072H33.9609L35.6045 85.9273L40.6085 83.8853Z" fill="#ED837A"/>
<path d="M43.7249 55.1606L42.4208 67.1725L37.4679 69.1891C37.3936 69.1816 37.3032 70.2613 38.9424 55.1606H43.7249Z" fill="#ED837A"/>
<path d="M42.7003 29.2056C45.4904 27.2016 48.6927 31.0269 46.2497 33.4418C44.2932 35.3759 43.0471 38.0653 43.0471 41.1323V46.2335H38.2646V37.944C38.2648 34.1283 40.0839 31.0847 42.7003 29.2056Z" fill="#F4E781"/>
</g>
</svg>
